# xmcd
#
# Track frame offsets:
#	150
#	28200
#	49125
#	69900
#	102525
#	124200
#	142350
#	158025
#	177825
#	201675
#
# Disc length: 3078 seconds
#
# Revision: 0
# Processed by: cddbd v1.5.1PL2 Copyright (c) Steve Scherf et al.
# Submitted via: EasyCDDAExtractor 8.2.4.1
#
DISCID=9d0c040a
DTITLE=Michal "Cielak" Kielak - tribute to Ryszard "Skiba" Skibinski
DYEAR=2003
DGENRE=Blues
TTITLE0=Ode mnie dla ciebie
TTITLE1=Jak sie czujesz ze mna w lozku
TTITLE2=Blues corek naszych
TTITLE3=Blues bez pieniedzy
TTITLE4=Blues chorego
TTITLE5=Szalona Baska
TTITLE6=Droga do sklepu monopolowego
TTITLE7=Wodka blues
TTITLE8=Lutek - pogromca lwow i dzikich kobiet
TTITLE9=Kasa Chorych
EXTD=
EXTT0=
EXTT1=
EXTT2=
EXTT3=
EXTT4=
EXTT5=
EXTT6=
EXTT7=
EXTT8=
EXTT9=
PLAYORDER=
